<svg xmlns="http://www.w3.org/2000/svg" version="1.1" xmlns:xlink="http://www.w3.org/1999/xlink" xmlns:svgjs="http://svgjs.dev/svgjs" width="1000" height="166" viewBox="0 0 1000 166"><g transform="matrix(1,0,0,1,-0.6060606060606233,-0.5278390021666866)"><svg viewBox="0 0 396 66" data-background-color="#0158a8" preserveAspectRatio="xMidYMid meet" height="166" width="1000" xmlns="http://www.w3.org/2000/svg" xmlns:xlink="http://www.w3.org/1999/xlink"><g id="tight-bounds" transform="matrix(1,0,0,1,0.2400000000000091,0.20986369965663698)"><svg viewBox="0 0 395.52 65.58027260068675" height="65.58027260068675" width="395.52"><g><svg viewBox="0 0 490.79554407943 81.37769410379094" height="65.58027260068675" width="395.52"><g transform="matrix(1,0,0,1,95.27554407942992,11.246844843577477)"><svg viewBox="0 0 395.52000000000004 58.88400441663599" height="58.88400441663599" width="395.52000000000004"><g id="textblocktransform"><svg viewBox="0 0 395.52000000000004 58.88400441663599" height="58.88400441663599" width="395.52000000000004" id="textblock"><g><svg viewBox="0 0 395.52000000000004 58.88400441663599" height="58.88400441663599" width="395.52000000000004"><g transform="matrix(1,0,0,1,0,0)"><svg width="395.52000000000004" viewBox="4 -39.95 271.68 40.45" height="58.88400441663599" data-palette-color="#ffffff"><g class="undefined-text-0" data-fill-palette-color="primary" id="text-0"><path d="M26.15-10.5L26.15-37.55Q26.15-39.95 29.1-39.95L29.1-39.95Q32.05-39.95 32.05-37.55L32.05-37.55 32.05-3.05Q32.05-1.3 30.2-0.5L30.2-0.5 30.25-0.5Q29.45-0.15 28.55 0.05 27.65 0.25 26.8 0.25L26.8 0.25Q26.15 0.25 25.45 0.13 24.75 0 24.13-0.28 23.5-0.55 22.98-1.03 22.45-1.5 22.15-2.2L22.15-2.2 11.3-29.25 9.95-29.1 9.95-2.1Q9.95 0.3 6.95 0.3L6.95 0.3Q4 0.3 4-2.1L4-2.1 4-36.55Q4-38.6 5.8-39.3L5.8-39.3Q7.45-39.95 9.3-39.95L9.3-39.95Q10.6-39.95 11.93-39.43 13.25-38.9 13.95-37.45L13.95-37.45 24.75-10.35 26.15-10.5ZM61 0.05L42.7 0.05Q40.85 0.05 40.2-0.9 39.55-1.85 39.55-3L39.55-3 39.55-36.7Q39.55-37.85 40.2-38.78 40.85-39.7 42.7-39.7L42.7-39.7 60.1-39.7Q61.95-39.7 62.05-37.2L62.05-37.2Q62.15-34.65 60.1-34.65L60.1-34.65 45.45-34.65 45.45-5 61-5Q62.85-5 62.9-2.55L62.9-2.55Q63 0.05 61 0.05L61 0.05ZM58.25-20.65L58.25-20.65Q58.25-18.9 57.02-17.7 55.8-16.5 54.05-16.5L54.05-16.5Q52.35-16.5 51.15-17.7 49.95-18.9 49.95-20.65L49.95-20.65Q49.95-22.4 51.15-23.6 52.35-24.8 54.05-24.8L54.05-24.8Q55.8-24.8 57.02-23.6 58.25-22.4 58.25-20.65ZM81.65-34.65L81.65-2Q81.65 0.4 78.65 0.4L78.65 0.4Q75.7 0.4 75.7-2L75.7-2 75.7-34.65 66.95-34.65Q65.14-34.65 65.05-37.2L65.05-37.2Q65.05-39.7 66.95-39.7L66.95-39.7 90.4-39.7Q92.3-39.7 92.2-37.2L92.2-37.2Q92.2-34.65 90.4-34.65L90.4-34.65 81.65-34.65ZM120.24-0.6L110.79-16.45 106.94-16.45Q106.09-16.45 105.62-17.13 105.14-17.8 105.14-18.95L105.14-18.95Q105.14-21.5 107.24-21.5L107.24-21.5 113.09-21.5Q114.94-21.5 115.69-22.55 116.44-23.6 116.44-24.85L116.44-24.85 116.44-31.3Q116.44-32.55 115.69-33.6 114.94-34.65 113.09-34.65L113.09-34.65 102.54-34.65 102.54-2.05Q102.54 0.35 99.59 0.35L99.59 0.35Q96.64 0.35 96.64-2.05L96.64-2.05 96.64-36.7Q96.64-38.5 97.57-39.1 98.49-39.7 99.79-39.7L99.79-39.7 114.34-39.7Q115.64-39.7 117.04-39.15 118.44-38.6 119.74-37.75L119.74-37.75 119.69-37.75Q120.99-36.8 121.69-35.27 122.39-33.75 122.39-31.75L122.39-31.75 122.39-24.45Q122.39-20.4 119.69-18.4L119.69-18.4Q119.14-18 118.52-17.65 117.89-17.3 117.24-16.95L117.24-16.95 125.24-3.75Q125.39-3.5 125.54-3.1 125.69-2.7 125.69-2.45L125.69-2.45Q125.69-1.25 123.99-0.15L123.99-0.15 123.99-0.2Q122.84 0.5 122.04 0.5L122.04 0.5Q120.89 0.5 120.19-0.65L120.19-0.65 120.24-0.6ZM138.34-39.7L149.24-39.7Q150.54-39.7 151.94-39.15 153.34-38.6 154.64-37.75L154.64-37.75 154.59-37.75Q155.89-36.8 156.59-35.27 157.29-33.75 157.29-31.75L157.29-31.75 157.29-8Q157.29-3.95 154.59-1.95L154.59-1.95Q153.29-1 151.92-0.48 150.54 0.05 149.24 0.05L149.24 0.05 138.34 0.05Q137.04 0.05 135.67-0.48 134.29-1 132.99-1.95L132.99-1.95Q131.69-2.95 130.99-4.42 130.29-5.9 130.29-8L130.29-8 130.29-31.75Q130.29-33.75 130.99-35.27 131.69-36.8 132.99-37.75L132.99-37.75 132.94-37.75Q134.24-38.6 135.64-39.15 137.04-39.7 138.34-39.7L138.34-39.7ZM139.59-5L147.99-5Q149.84-5 150.59-6.05 151.34-7.1 151.34-8.4L151.34-8.4 151.34-31.3Q151.34-32.55 150.59-33.6 149.84-34.65 147.99-34.65L147.99-34.65 139.59-34.65Q137.74-34.65 136.99-33.6 136.24-32.55 136.24-31.3L136.24-31.3 136.24-8.4Q136.24-7.1 136.99-6.05 137.74-5 139.59-5L139.59-5ZM186.99-10.5L186.99-37.55Q186.99-39.95 189.94-39.95L189.94-39.95Q192.89-39.95 192.89-37.55L192.89-37.55 192.89-3.05Q192.89-1.3 191.04-0.5L191.04-0.5 191.09-0.5Q190.29-0.15 189.39 0.05 188.49 0.25 187.64 0.25L187.64 0.25Q186.99 0.25 186.29 0.13 185.59 0 184.96-0.28 184.34-0.55 183.81-1.03 183.29-1.5 182.99-2.2L182.99-2.2 172.14-29.25 170.79-29.1 170.79-2.1Q170.79 0.3 167.79 0.3L167.79 0.3Q164.84 0.3 164.84-2.1L164.84-2.1 164.84-36.55Q164.84-38.6 166.64-39.3L166.64-39.3Q168.29-39.95 170.14-39.95L170.14-39.95Q171.44-39.95 172.76-39.43 174.09-38.9 174.79-37.45L174.79-37.45 185.59-10.35 186.99-10.5ZM206.49-37.55L206.49-2.1Q206.49 0.3 203.49 0.3L203.49 0.3Q200.54 0.3 200.54-2.1L200.54-2.1 200.54-37.55Q200.54-39.95 203.49-39.95L203.49-39.95Q206.49-39.95 206.49-37.55L206.49-37.55ZM241.43-11.3L241.43-8Q241.43-3.95 238.73-1.95L238.73-1.95Q237.43-1 236.06-0.48 234.68 0.05 233.38 0.05L233.38 0.05 222.48 0.05Q221.18 0.05 219.81-0.48 218.43-1 217.13-1.95L217.13-1.95Q215.83-2.95 215.13-4.42 214.43-5.9 214.43-8L214.43-8 214.43-31.75Q214.43-33.75 215.13-35.27 215.83-36.8 217.13-37.75L217.13-37.75 217.08-37.75Q218.38-38.6 219.78-39.15 221.18-39.7 222.48-39.7L222.48-39.7 233.38-39.7Q234.68-39.7 236.08-39.15 237.48-38.6 238.78-37.75L238.78-37.75 238.73-37.75Q240.03-36.8 240.73-35.27 241.43-33.75 241.43-31.75L241.43-31.75 241.43-28.3Q241.43-25.9 238.43-25.9L238.43-25.9Q235.48-25.9 235.48-28.3L235.48-28.3 235.48-31.3Q235.48-32.55 234.73-33.6 233.98-34.65 232.13-34.65L232.13-34.65 223.73-34.65Q221.88-34.65 221.13-33.6 220.38-32.55 220.38-31.3L220.38-31.3 220.38-8.4Q220.38-7.1 221.13-6.05 221.88-5 223.73-5L223.73-5 232.13-5Q233.98-5 234.73-6.05 235.48-7.1 235.48-8.4L235.48-8.4 235.48-11.3Q235.48-13.65 238.43-13.65L238.43-13.65Q241.43-13.65 241.43-11.3L241.43-11.3ZM257.98-22.85L267.63-22.85Q268.93-22.85 270.33-22.3 271.73-21.75 273.03-20.85L273.03-20.85 272.98-20.85Q274.28-19.95 274.98-18.4 275.68-16.85 275.68-14.85L275.68-14.85 275.68-8Q275.68-3.95 272.98-1.95L272.98-1.95Q271.68-1 270.31-0.48 268.93 0.05 267.63 0.05L267.63 0.05 256.73 0.05Q255.43 0.05 254.06-0.48 252.68-1 251.38-1.95L251.38-1.95Q248.68-3.95 248.68-8L248.68-8 248.68-11.3Q248.68-13.65 251.63-13.65L251.63-13.65Q254.63-13.65 254.63-11.3L254.63-11.3 254.63-8.4Q254.63-7.1 255.38-6.05 256.13-5 257.98-5L257.98-5 266.38-5Q268.23-5 268.98-6.05 269.73-7.1 269.73-8.4L269.73-8.4 269.73-14.45Q269.73-15.7 268.98-16.78 268.23-17.85 266.38-17.85L266.38-17.85 256.73-17.85Q254.13-17.85 251.38-19.75L251.38-19.75Q248.68-21.85 248.68-25.8L248.68-25.8 248.68-31.75Q248.68-33.75 249.38-35.27 250.08-36.8 251.38-37.75L251.38-37.75 251.33-37.75Q252.63-38.6 254.03-39.15 255.43-39.7 256.73-39.7L256.73-39.7 267.63-39.7Q268.93-39.7 270.33-39.15 271.73-38.6 273.03-37.75L273.03-37.75 272.98-37.75Q274.28-36.8 274.98-35.27 275.68-33.75 275.68-31.75L275.68-31.75 275.68-28.8Q275.68-26.45 272.68-26.45L272.68-26.45Q269.73-26.45 269.73-28.8L269.73-28.8 269.73-31.3Q269.73-32.55 268.98-33.6 268.23-34.65 266.38-34.65L266.38-34.65 257.98-34.65Q256.13-34.65 255.38-33.6 254.63-32.55 254.63-31.3L254.63-31.3 254.63-26.2Q254.63-24.9 255.38-23.88 256.13-22.85 257.98-22.85L257.98-22.85Z" fill="#ffffff" data-fill-palette-color="primary"></path></g></svg></g></svg></g></svg></g></svg></g><g><svg viewBox="0 0 81.37444385276817 81.37769410379094" height="81.37769410379094" width="81.37444385276817"><g><svg version="1.1" xmlns="http://www.w3.org/2000/svg" xmlns:xlink="http://www.w3.org/1999/xlink" x="0" y="0" viewBox="0 0 99.99700592820787 100.001" enable-background="new 0 0 99.997 100" xml:space="preserve" width="81.37444385276817" height="81.37769410379094" class="icon-icon-0" data-fill-palette-color="accent" id="icon-0"><g fill="#ffffff" data-fill-palette-color="accent"><path d="M91.113 26.066c-4.816-3.747-11.3-5.775-19.286-6.035-0.668-3.442-1.834-6.428-3.495-8.92-2.844-4.267-7.125-7.141-12.724-8.537l-0.16-0.041L36.479 0.425c-0.135-0.03-0.272-0.05-0.406-0.077-0.093-0.018-0.182-0.035-0.276-0.052-0.255-0.044-0.51-0.085-0.768-0.117-0.117-0.018-0.23-0.032-0.348-0.047-0.249-0.03-0.498-0.049-0.75-0.07-0.111-0.009-0.225-0.021-0.341-0.03C33.228 0.011 32.868 0 32.503 0 25.531 0 19.29 3.9 15.16 10H7.506c0 0-0.003 0-0.006 0C3.366 10 0 13.363 0 17.5S3.366 25 7.5 25c0 0 0 0 0.003 0h2.595c-0.062 0.823-0.096 1.657-0.096 2.502 0 0.844 0.034 1.673 0.096 2.499H7.506c0 0-0.003 0-0.006 0C3.366 30 0 33.364 0 37.5c0 1.291 0.332 2.508 0.907 3.571 1.272 2.341 3.75 3.93 6.594 3.93h7.656c4.131 6.103 10.371 9.999 17.343 9.999 0.36 0 0.72-0.012 1.084-0.032 0.114-0.006 0.228-0.021 0.344-0.029 0.249-0.018 0.501-0.038 0.75-0.07 0.113-0.012 0.23-0.029 0.345-0.047 0.258-0.029 0.513-0.073 0.768-0.114 0.093-0.021 0.185-0.034 0.276-0.053 0.138-0.029 0.276-0.046 0.406-0.079l18.969-2.106 0.163-0.04c5.599-1.398 9.88-4.272 12.724-8.536 1.649-2.477 2.81-5.438 3.48-8.849 13.184 0.587 13.187 7.592 13.187 9.962 0 9.624-9.064 14.862-30.308 17.524C18.933 66.992 5.001 76.101 5.001 95v5.001h15V95c0-2.877 0-5.593 3.846-8.502 5.274-3.979 16.278-7.037 32.699-9.091 12.646-1.584 21.628-4.034 28.272-7.726 12.545-6.97 15.179-17.268 15.179-24.677C100.002 37.247 96.844 30.525 91.113 26.066zM7.503 19.997c-1.38 0-2.502-1.122-2.502-2.502 0-1.377 1.122-2.499 2.502-2.499h0.003c1.377 0.003 2.496 1.122 2.496 2.499C10.002 18.875 8.88 19.997 7.503 19.997zM7.501 39.995c-0.946 0-1.773-0.531-2.197-1.31-0.193-0.353-0.303-0.759-0.303-1.189 0-1.38 1.122-2.499 2.502-2.499h0.003c1.377 0 2.496 1.122 2.496 2.499S8.88 39.995 7.501 39.995zM14.563 14.996H30c1.38 0 2.502 1.122 2.502 2.499 0 1.38-1.122 2.502-2.502 2.502H14.563C14.842 19.215 15 18.374 15 17.495 15.001 16.619 14.842 15.777 14.563 14.996zM14.563 39.995C14.842 39.215 15 38.372 15 37.496c0-0.879-0.158-1.718-0.437-2.499H30c1.38 0 2.502 1.119 2.502 2.499 0 1.377-1.122 2.499-2.502 2.499H14.563zM49.977 28.589c-0.003 0.108-0.009 0.215-0.015 0.322-0.013 0.258-0.027 0.517-0.047 0.774-0.009 0.114-0.021 0.225-0.03 0.343-0.023 0.255-0.046 0.51-0.076 0.762-0.012 0.096-0.024 0.197-0.034 0.296-0.034 0.279-0.074 0.55-0.114 0.826-0.012 0.067-0.021 0.136-0.031 0.203-0.053 0.331-0.111 0.658-0.176 0.98-0.003 0.009-0.003 0.019-0.006 0.027-1.507 7.518-5.973 13.524-11.697 15.841-0.056 0.024-0.114 0.043-0.173 0.067-0.19 0.073-0.387 0.147-0.583 0.215-0.102 0.034-0.209 0.067-0.313 0.102-0.156 0.047-0.311 0.093-0.468 0.139-0.123 0.034-0.246 0.067-0.372 0.099-0.083 0.021-0.163 0.035-0.246 0.055l-3.199 0.354c-4.116-0.031-7.899-1.899-10.875-4.995h8.481c4.137 0 7.5-3.366 7.5-7.5 0-4.137-3.363-7.5-7.5-7.5H15.109c-0.07-0.823-0.107-1.656-0.107-2.499 0-0.846 0.037-1.682 0.107-2.502h14.893c4.137 0 7.5-3.363 7.5-7.5s-3.363-7.5-7.5-7.5h-8.481c2.976-3.096 6.759-4.964 10.872-4.995l3.202 0.354c0.083 0.018 0.164 0.034 0.243 0.055 0.126 0.03 0.252 0.064 0.378 0.096 0.156 0.044 0.311 0.093 0.464 0.141 0.104 0.032 0.214 0.067 0.316 0.099 0.196 0.067 0.393 0.138 0.586 0.217 0.055 0.024 0.114 0.041 0.169 0.064 5.724 2.32 10.189 8.327 11.697 15.842 0.003 0.006 0.003 0.021 0.006 0.027 0.065 0.325 0.123 0.654 0.176 0.978 0.012 0.07 0.024 0.141 0.031 0.208 0.041 0.273 0.08 0.544 0.114 0.826 0.012 0.093 0.027 0.197 0.035 0.296 0.03 0.252 0.053 0.507 0.076 0.762 0.009 0.111 0.021 0.222 0.03 0.341 0.021 0.258 0.035 0.516 0.047 0.774 0.006 0.108 0.012 0.215 0.015 0.319 0.014 0.361 0.023 0.725 0.023 1.095C50.001 27.863 49.992 28.229 49.977 28.589zM72.437 25.06c0.023 0 0.044 0.003 0.064 0.003v2.435 2.569c-0.026-0.003-0.047-0.003-0.073-0.006 0.047-0.836 0.073-1.688 0.073-2.563C72.501 26.664 72.478 25.853 72.437 25.06zM82.392 65.302c-6.064 3.369-14.473 5.637-26.461 7.137-17.549 2.191-29.03 5.484-35.094 10.063C15 86.911 15 91.777 15 94.994h-4.998c0-13.491 7.58-22.802 45.311-27.519C72.466 65.331 90 60.983 90 44.996c0-4.281-1.526-10.773-9.999-13.598V26.18c3.141 0.838 5.83 2.111 8.039 3.835 4.488 3.486 6.961 8.807 6.961 14.981C95.001 51.063 92.812 59.513 82.392 65.302z" fill="#ffffff" data-fill-palette-color="accent"></path></g></svg></g></svg></g></svg></g><defs></defs></svg><rect width="395.52" height="65.58027260068675" fill="none" stroke="none" visibility="hidden"></rect></g></svg></g></svg>